<svg version="1.2" xmlns="http://www.w3.org/2000/svg" viewBox="0 0 366 353" width="366" height="353">
	<title>classMate-ico</title>
	<defs>
		<linearGradient id="g1" x2="1" gradientUnits="userSpaceOnUse" gradientTransform="matrix(52.917,-46,38.123,43.855,183.542,219)">
			<stop offset="0" stop-color="#ffc400"/>
			<stop offset=".773" stop-color="#ff7000"/>
			<stop offset="1" stop-color="#ff7000"/>
		</linearGradient>
		<linearGradient id="g2" x2="1" gradientUnits="userSpaceOnUse" gradientTransform="matrix(52.917,-46,47.22,54.32,234.542,219)">
			<stop offset="0" stop-color="#ffc400"/>
			<stop offset=".773" stop-color="#ff7000"/>
			<stop offset="1" stop-color="#ff7000"/>
		</linearGradient>
	</defs>
	<style>
		tspan { white-space:pre } 
		.s0 { fill: #000000 } 
		.s1 { fill: none;stroke: #ffffff;stroke-linecap: round;stroke-linejoin: round;stroke-width: 15 } 
		.s2 { fill: #000000;stroke: #ffffff;stroke-linecap: round;stroke-linejoin: round;stroke-width: 15 } 
		.s3 { fill: url(#g1);stroke: #ffffff;stroke-linecap: round;stroke-linejoin: round;stroke-width: 15 } 
		.s4 { fill: url(#g2);stroke: #ffffff;stroke-linecap: round;stroke-linejoin: round;stroke-width: 15 } 
	</style>
	<g id="logo-1">
		<path id="Shape 23" class="s0" d="m183 343c-92.4 0-167-74.6-167-167 0-92.4 74.6-167 167-167 92.4 0 167 74.6 167 167 0 92.4-74.6 167-167 167z"/>
		<path id="Shape 10" class="s1" d="m33.9 411.4c0 0 48-2.2 78.2 17.3 34.6 22.4 51.4 69.2 41.9 113.3 0 0-25 78.2-118.5 79.3"/>
		<path id="Shape 1" class="s2" d="m80 178c0 0-30-73.5 4.1-94.7 0 0 10.6-16.3 61.9-16.3 32.9 0 182 0 182 0 0 0-4.2 70.2-76 73h-101.6c0 0 2.7 30.5-19.4 38.6-5.4 1.9-18.7-0.7-24.1-1.9-12.3-2.9-26.9 1.3-26.9 1.3z"/>
		<path id="Shape 2" class="s2" d="m122 203c0 0-0.1-13.7-8-20.1-8.2-6.6-24.4-5.9-33.7 2.6 0 0-19.7 29.6 16.7 39.5 0 0 9.4 83.7 94 87 0 0 83.5-4.3 84-91v-82h-126c0 0 10.8 30.6-20.6 42.6z"/>
		<path id="Shape 3" class="s2" d="m124 190h51m24.5 30c-13 0-23.5-10.5-23.5-23.5 0-13 10.5-23.5 23.5-23.5 13 0 23.5 10.5 23.5 23.5 0 13-10.5 23.5-23.5 23.5zm69 0c-13 0-23.5-10.5-23.5-23.5 0-13 10.5-23.5 23.5-23.5 13 0 23.5 10.5 23.5 23.5 0 13-10.5 23.5-23.5 23.5z"/>
		<path id="Shape 4" class="s3" d="m228 192h14m-41 27c-12.7 0-23-10.3-23-23 0-12.7 10.3-23 23-23 12.7 0 23 10.3 23 23 0 12.7-10.3 23-23 23z"/>
		<path id="Shape 4 copy" class="s4" d="m228 192h14m29 27c-12.7 0-23-10.3-23-23 0-12.7 10.3-23 23-23 12.7 0 23 10.3 23 23 0 12.7-10.3 23-23 23z"/>
		<path id="Shape 5" class="s2" d="m188 252c0 0-8.4 24.5 19 24"/>
	</g>
</svg>