<svg version="1.2" xmlns="http://www.w3.org/2000/svg" viewBox="0 0 884 1345" width="884" height="1345">
	<title>classMate</title>
	<style>
		.s0 { fill: #000000;stroke: #ffffff;stroke-linecap: round;stroke-linejoin: round;stroke-width: 15 } 
		.s1 { fill: none;stroke: #000000;stroke-linecap: round;stroke-linejoin: round;stroke-width: 16 } 
		.s2 { fill: none;stroke: #ffffff;stroke-linecap: round;stroke-linejoin: round;stroke-width: 16 } 
		.s3 { fill: #000000;stroke: #ffffff;stroke-linecap: round;stroke-linejoin: round;stroke-width: 16 } 
		.s4 { fill: #e97b3a;stroke: #ffffff;stroke-linecap: round;stroke-linejoin: round;stroke-width: 16 } 
		.s5 { fill: #ffc230;stroke: #ffffff;stroke-linecap: round;stroke-linejoin: round;stroke-width: 16 } 
		.s6 { fill: none;stroke: #ffffff;stroke-linecap: round;stroke-linejoin: round;stroke-width: 15 } 
	</style>
	<path id="Shape 8" class="s0" d="m432 470c0 0 30.2 11.9 58 10 0 0 28.3-4 27 32 0 0 32.8 224.4 50 248 0 0-102.2 46.7-208-13 0 0-23-92.6 35-259 0 0 9.5-31.9 38-18z"/>
	<path id="Shape 19" class="s1" d="m416 886c0 0 22.3 150.4-17.8 272.8h59.8"/>
	<path id="Shape 19" class="s2" d="m416 886c0 0 22.3 150.4-17.8 272.8h59.8"/>
	<path id="Shape 20" class="s2" d="m535 893c0 0 36.9 166.4-2 267h60"/>
	<path id="Shape 18" class="s3" d="m295.6 381.3c0 0 16.4-10.3 92.4-0.3 0 0 27 47.3 49 44 22-3.3-10 40-10 40l-35 8c0 0-79.4-2.9-93-4-13.6-1.1 65.1-31.4-3.4-87.7z"/>
	<path id="Shape 17" class="s3" d="m286 469c-24.3 0-44-19.7-44-44 0-24.3 19.7-44 44-44 24.3 0 44 19.7 44 44 0 24.3-19.7 44-44 44z"/>
	<path id="Shape 21" class="s4" d="m274 799c0 0-93.8 160.2 15.9 254.8 5.9 5.1 30.1 17.6 27.1 12.2 0 0 13.6-26.4 35.8-18.5 26 9.4 43.9-39.3 31.6-132.2 0 0 6.6 21.7 24.6 32.7 18 11-5-138.6-42-152l-77-1c0 0-13.8-9.8-16 4z"/>
	<path id="Shape 22" class="s5" d="m325.1 944c-36.6-26.9-66.4-51.2-32.1-148.5l75-0.5c0 0-6.4 176-42.9 149z"/>
	<path id="Shape 14" class="s0" d="m435 428l-6 37c0 0 30.1 23.8 59 16l-5-55z"/>
	<path id="Shape 15" class="s0" d="m378 759l-24 128h101l23-62 12 61h93l-34-120c0 0-38.6 18-171-7z"/>
	<path id="Shape 9" class="s6" d="m425 528c0 0-67.9 150.4 33 186"/>
	<path id="Shape 6" class="s0" d="m311 472h85c0 0-50.1 152.7-38 276l18 11-5 35h-61z"/>
	<path id="Shape 16" class="s6" d="m516.3 506.1c0 0 83.6-86 129.6-226.4"/>
	<path id="Shape 7" class="s0" d="m272.6 471.4c0 0-28.2 8.5-32.6 53.5v218.1c0 0 2.8 42.5 38 52h26v-323.7z"/>
	<path id="Shape 10" class="s6" d="m310.9 528.4c0 0 48-2.2 78.2 17.3 34.6 22.4 51.4 69.2 41.9 113.3 0 0-25 78.2-118.5 79.3"/>
	<path id="Shape 1" class="s0" d="m357 295c0 0-30-73.5 4.1-94.7 0 0 10.6-16.3 61.9-16.3 32.9 0 182 0 182 0 0 0-4.2 70.2-76 73h-101.6c0 0 2.7 30.5-19.4 38.6-5.4 1.9-18.7-0.7-24.1-1.9-12.3-2.9-26.9 1.3-26.9 1.3z"/>
	<path id="Shape 2" class="s0" d="m399 320c0 0-0.1-13.7-8-20.1-8.2-6.6-24.4-5.9-33.7 2.6 0 0-19.7 29.6 16.7 39.5 0 0 9.4 83.7 94 87 0 0 83.5-4.3 84-91v-82h-126c0 0 10.8 30.6-20.6 42.6z"/>
	<path id="Shape 3" class="s0" d="m401 307h51m24.5 30c-13 0-23.5-10.5-23.5-23.5 0-13 10.5-23.5 23.5-23.5 13 0 23.5 10.5 23.5 23.5 0 13-10.5 23.5-23.5 23.5zm69 0c-13 0-23.5-10.5-23.5-23.5 0-13 10.5-23.5 23.5-23.5 13 0 23.5 10.5 23.5 23.5 0 13-10.5 23.5-23.5 23.5z"/>
	<path id="Shape 4" class="s0" d="m505 309h14"/>
	<path id="Shape 5" class="s0" d="m465 369c0 0-8.4 24.5 19 24"/>
</svg>