<svg xmlns="http://www.w3.org/2000/svg" data-name="Layer 2" viewBox="0 0 62 77.5" x="0px" y="0px" fill="#FFF">
    <title>hand gesture</title>
    <path
        d="M54.22,26.89a4.09,4.09,0,0,0-4.07-3.19H27L30.09,21a5,5,0,0,0,.61-6.87l-.56-.69a2.91,2.91,0,0,0-3.81-.66L14.8,19.83A16.35,16.35,0,0,0,6.3,33.7a16,16,0,0,0,16,16h11a4,4,0,0,0,3.32-6.24A4,4,0,0,0,39.3,39.7a4,4,0,0,0-.68-2.24A4,4,0,0,0,41.3,33.7a4,4,0,0,0-.55-2H50.3a4,4,0,0,0,3.92-4.81ZM34.72,47.11a2,2,0,0,1-1.42.59h-5a2,2,0,1,1,0-4h5a2,2,0,0,1,1.42,3.41Zm2-6a2,2,0,0,1-1.42.59h-7a2,2,0,1,1,0-4h7a2,2,0,0,1,1.42,3.41ZM39.3,33.7a2,2,0,0,1-2,2h-9a2,2,0,0,1,0-4h9A2,2,0,0,1,39.3,33.7Zm12.42-4.59a2,2,0,0,1-1.42.59h-22a4,4,0,0,0-2.62,7,4,4,0,0,0,0,6,4,4,0,0,0-1.38,3,3.91,3.91,0,0,0,.56,2H22.3a14,14,0,0,1-14-14c0-4.74,2.95-9.51,7.53-12.15l11.55-7.11a.91.91,0,0,1,1.21.22l.55.68a3,3,0,0,1-.37,4.12L23.64,24a1,1,0,0,0,.66,1.75H50.15a2.09,2.09,0,0,1,2.11,1.58A2,2,0,0,1,51.72,29.11Z" />

</svg>