<svg version="1.2" xmlns="http://www.w3.org/2000/svg" viewBox="0 0 512 522" width="512" height="522"><style></style><path fill-rule="evenodd" d="m463.9 335.6c-1.3-0.4-2.7-0.8-4.1-1.1-2.4-0.7-4.8-1.2-7.2-1.7l-5.7-43.4c-0.3-2.2-2.2-4-4.5-4l-24-0.4c-2.3-0.2-4.5 1.5-4.9 3.9l-7.2 43.1q-5.1 0.9-10 2.1c-3.3 0.8-6.6 1.8-9.9 2.9l-26.7-34.7c-1.4-1.8-3.8-2.4-5.9-1.3l-21.1 11.8c-2 1.1-2.9 3.5-2.1 5.6l15.3 41.1q-3.9 3.2-7.6 6.8-3.7 3.6-7.1 7.4l-40.4-16.7c-2.1-0.9-4.6-0.1-5.8 1.9l-12.5 20.7c-1.1 1.9-0.7 4.5 1 6l33.8 27.8c-1.2 3.2-2.2 6.5-3.2 9.8q-1.4 4.9-2.4 9.9l-43.4 5.8c-2.2 0.3-4 2.2-4 4.5l-0.4 23.9c-0.2 2.4 1.5 4.6 3.8 4.9l43.2 7.3 0.9 4.5 0.4 2h-205.6q0-213.1 0-426.2h266.3 2.5v94c0 2.5 2 4.6 4.6 4.6h93.9c0 0 0 177.2 0 177.2zm0 150.4h-86.8c-2.1-3.9-3.8-8-5-12.4l-0.1-0.2c-1.4-5.1-2-10.5-2-15.9 0.3-15.9 7-30.1 17.5-40.3 10.5-10.1 25-16.3 40.8-16.1 7 0.2 13.7 1.6 19.9 4 5.8 2.2 11.1 5.4 15.7 9.2zm-89.3-419.6l82.8 82.8h-82.8zm-7.9 419.6c0 0-55 0-55 0-0.4-1.3-0.6-2.6-0.9-3.8q-0.7-3.6-1.2-7.3c-0.3-2.1-1.9-3.7-3.8-4l-42.6-7.1 0.3-16.3 42.7-5.7c2.1-0.3 3.7-1.8 4-3.8q1.1-6.2 2.8-12.3c1.2-4.1 2.6-8.1 4.1-12 0.9-2 0.1-4.3-1.6-5.5l-33-27.2 8.3-14 40 16.5c1.9 0.8 4 0.2 5.3-1.3 2.7-3.3 5.6-6.4 8.6-9.3 3-2.8 6.2-5.6 9.6-8.3 1.7-1.3 2.2-3.7 1.3-5.6l-15-40.1 14.2-7.9 26.3 34.2c1.3 1.6 3.4 2.2 5.3 1.6 3.9-1.5 8-2.7 12.1-3.8q6.1-1.5 12.4-2.4c2.1-0.2 3.6-1.8 3.9-3.8l7.2-42.5 16.3 0.2 5.6 42.8c0.3 2 1.9 3.6 3.8 4 3.3 0.5 6.6 1.2 9.7 2.1q3.3 0.8 6.5 1.9v57.6c-3.8-2.6-8-4.8-12.3-6.5-7.2-2.8-15-4.4-23.1-4.5-18.4-0.3-35.2 6.9-47.4 18.7-12.2 11.8-20 28.3-20.3 46.7-0.1 6.4 0.7 12.7 2.3 18.6l0.1 0.2q1.4 5.1 3.5 9.9zm-295.4-26.5q0-208.8 0-417.7h286v8.8l-265.3-0.1c-2.3 0-4.2 1.6-4.6 3.7l-0.1 0.5v0.2 404.6c0 0-16 0-16 0zm-23.2-15.8v-417.7h294.5v6.5h-276c-2.2 0-4.1 1.6-4.5 3.7l-0.1 0.5v0.1 0.1 406.8zm89.1-148.8v2.2l19.7 3.3c2.1 0.3 3.6 2 3.8 4q0.5 3.1 1.2 6 0.7 3 1.8 6c0.8 2 0 4.2-1.7 5.4l-15.7 12 2.1 3.8 18.8-7c2-0.7 4.1-0.1 5.3 1.5q1.9 2.4 4.1 4.7 2.1 2.2 4.5 4.2c1.6 1.3 2 3.5 1.3 5.3l-7.7 18.5 3.8 2.3 12.7-15.5c1.3-1.5 3.5-2 5.3-1.3 1.9 0.7 3.9 1.5 5.9 2q3 0.9 6 1.4c2.1 0.3 3.7 2.1 3.9 4.2l2.6 19.6 4.4 0.1 3.3-19.8c0.3-2 1.9-3.5 3.9-3.8q3.1-0.5 6.1-1.2c2-0.5 4-1.1 5.9-1.8 2-0.7 4.2 0 5.3 1.7l12.2 15.7 3.8-2.1-7-18.8c-0.7-1.9-0.1-4 1.5-5.2q2.5-2 4.6-4.1c1.5-1.5 2.9-3 4.3-4.6 1.3-1.6 3.7-2.1 5.5-1.2l18.3 7.6 2.2-3.8-15.4-12.7c-1.6-1.3-2.1-3.5-1.4-5.3q1.2-2.9 2.1-5.9 0.8-3 1.3-6c0.4-2.1 2.1-3.7 4.2-3.9l19.6-2.6 0.1-4.3-19.7-3.3c-2.1-0.4-3.6-2.1-3.9-4-0.2-2.1-0.6-4.1-1.1-6q-0.8-3-1.8-6c-0.8-2 0-4.2 1.7-5.4l15.7-12-2.2-3.9-18.7 7.1c-2 0.7-4.1 0-5.3-1.5-1.2-1.6-2.6-3.2-4-4.7q-2.2-2.2-4.6-4.2c-1.7-1.4-2.1-3.7-1.2-5.6l7.5-18.3-3.7-2.2-12.8 15.4c-1.3 1.6-3.4 2.1-5.3 1.4-1.9-0.8-3.9-1.5-5.8-2.1q-3-0.8-6-1.3c-2.2-0.4-3.7-2.1-3.9-4.2l-2.6-19.6-4.4-0.1-3.3 19.7c-0.3 2.1-2 3.7-4 3.9-2 0.3-4 0.7-6 1.2q-3 0.7-5.9 1.8c-2 0.7-4.3-0.1-5.4-1.8l-12.1-15.7-3.8 2.2 7 18.8c0.7 1.9 0.1 4-1.5 5.2-1.6 1.3-3.1 2.6-4.6 4.1q-2.3 2.1-4.3 4.5c-1.4 1.7-3.7 2.1-5.5 1.2l-18.3-7.5-2.3 3.7 15.5 12.8c1.6 1.3 2.1 3.4 1.3 5.3-0.7 1.9-1.4 3.9-2 5.8q-0.8 3-1.4 6.1c-0.3 2.1-2.1 3.6-4.1 3.8l-19.7 2.6zm81.9-34.7c10 0.1 19 4.3 25.4 11 6.4 6.6 10.3 15.7 10.1 25.7-0.2 10-4.4 19-11 25.4-6.7 6.4-15.7 10.3-25.7 10.1-10-0.1-19-4.3-25.4-11-6.4-6.6-10.3-15.7-10.1-25.7 0.1-10 4.3-19 11-25.4 6.6-6.4 15.7-10.3 25.7-10.1zm18.7 17.4c-4.8-5-11.5-8.1-18.9-8.2-7.4-0.2-14.2 2.7-19.1 7.5-5 4.8-8.1 11.5-8.2 18.9-0.2 7.4 2.7 14.3 7.5 19.2 4.8 4.9 11.5 8.1 18.9 8.2 7.4 0.1 14.2-2.8 19.2-7.5 4.9-4.8 8.1-11.5 8.2-18.9 0.1-7.5-2.8-14.2-7.6-19.2zm54.7-95.8v-69.5h-9.3v69.5zm-66.3 0v-28.4h17.8q14.8 0.1 20.4-6.1c3.8-4.1 5.7-9.1 5.7-15q0-5.1-2.1-9.4-2.1-4.3-5.6-6.7-3.5-2.4-8.6-3.3c-2.4-0.4-6-0.6-10.6-0.6h-26.2v69.5c0 0 9.2 0 9.2 0zm0-61.4h17.8c4.1 0 7 0.3 8.6 0.6 2.3 0.7 4.3 2.1 5.8 4.1 1.4 2.1 2.2 4.6 2.2 7.5q0 6.1-3.8 9.4c-2.5 2.2-6.7 3.3-12.6 3.3h-18c0 0 0-24.9 0-24.9zm-71.9 61.4l7.6-21.1h29.3l8 21.1h10.5l-28.3-69.5h-10.2l-26.6 69.5zm17.8-48.9c1.6-4.4 2.9-8.9 3.9-13.5 1.1 3.9 2.8 8.7 5 14.6l7.2 19.3h-23.7z"/></svg>