<svg version="1.2" xmlns="http://www.w3.org/2000/svg" viewBox="0 0 32 32" width="32" height="32"><style>tspan{white-space:pre}.a{font-size: 5px;fill: #000000;font-family: "' Helvetica  Neue'"}</style><path fill-rule="evenodd" d="m30 5v22c0 1.7-1.3 3-3 3h-12c-1.7 0-3-1.3-3-3v-1h-2c-0.6 0-1-0.4-1-1v-1.6q-1.1-0.4-2-1.1l-1.5 0.8c-0.4 0.3-1 0.1-1.3-0.4l-2.1-3.4q-0.2-0.4-0.1-0.8 0.1-0.4 0.5-0.6l1.4-0.8q-0.1-0.6-0.1-1.1 0-0.5 0.1-1.1l-1.4-0.8q-0.4-0.2-0.5-0.6-0.1-0.4 0.1-0.8l2.1-3.4c0.3-0.5 0.9-0.7 1.3-0.4l1.5 0.8q0.9-0.7 2-1.1v-1.6c0-0.6 0.4-1 1-1h2v-1c0-1.7 1.3-3 3-3h12c1.7 0 3 1.3 3 3zm-18 3h-1v1.3c0 0.4-0.3 0.8-0.7 1-0.9 0.2-1.8 0.7-2.5 1.4-0.3 0.2-0.8 0.3-1.2 0.1l-1.2-0.7-1 1.8 1.1 0.6c0.4 0.2 0.6 0.7 0.5 1.1q-0.2 0.7-0.2 1.4 0 0.7 0.2 1.4c0.1 0.4-0.1 0.9-0.5 1.1l-1.1 0.6 1 1.8 1.2-0.7c0.4-0.2 0.9-0.1 1.2 0.1 0.7 0.7 1.6 1.2 2.5 1.4 0.4 0.2 0.7 0.6 0.7 1v1.3h1zm16-3c0-0.6-0.4-1-1-1h-4c0 1.1-0.9 2-2 2-1.1 0-2-0.9-2-2h-4c-0.6 0-1 0.4-1 1v7h2.6l1.7-1.7q0.3-0.3 0.7-0.3h1.3c0.3-0.6 1-1 1.7-1 1.1 0 2 0.9 2 2 0 1.1-0.9 2-2 2-0.7 0-1.4-0.4-1.7-1h-0.9l-1.7 1.7q-0.3 0.3-0.7 0.3h-3v1h6.3c0.3-0.6 1-1 1.7-1 1.1 0 2 0.9 2 2 0 1.1-0.9 2-2 2-0.7 0-1.4-0.4-1.7-1h-6.3v1h3q0.4 0 0.7 0.3l1.7 1.7h0.9c0.3-0.6 1-1 1.7-1 1.1 0 2 0.9 2 2 0 1.1-0.9 2-2 2-0.7 0-1.4-0.4-1.7-1h-1.3q-0.4 0-0.7-0.3l-1.7-1.7h-2.6v7c0 0.6 0.4 1 1 1h12c0.6 0 1-0.4 1-1z"/><path  d="m10.7 13.3c-0.4-0.4-1-0.4-1.4 0l-2 2c-0.4 0.4-0.4 1 0 1.4l2 2q0.3 0.3 0.7 0.3 0.4 0 0.7-0.3c0.4-0.4 0.4-1 0-1.4l-1.3-1.3 1.3-1.3c0.4-0.4 0.4-1 0-1.4z"/><text style="transform:matrix(1,0,0,1,0,47)" ><tspan x="0" y="0" class="a">Created by M. Oki         Orlando
</tspan></text><text style="transform:matrix(1,0,0,1,0,52)" ><tspan x="0" y="0" class="a">from the Noun Project
</tspan></text></svg>