<svg version="1.2" xmlns="http://www.w3.org/2000/svg" viewBox="0 0 1280 1280" width="1280" height="1280">
	<title>New Project</title>
	<defs>
		<linearGradient id="g1" x2="1" gradientUnits="userSpaceOnUse" gradientTransform="matrix(423.887,0,0,1282.271,96.873,588.854)">
			<stop offset="0" stop-color="#2ad9a3"/>
			<stop offset=".01" stop-color="#2ad9a3"/>
			<stop offset="1" stop-color="#ffffff"/>
		</linearGradient>
		<linearGradient id="g2" x2="1" gradientUnits="userSpaceOnUse" gradientTransform="matrix(432.816,0,0,1259.99,55.43,629.995)">
			<stop offset="0" stop-color="#ffd600"/>
			<stop offset="1" stop-color="#e108f4"/>
		</linearGradient>
		<linearGradient id="g3" x2="1" gradientUnits="userSpaceOnUse" gradientTransform="matrix(392.483,0,0,1313.073,182.154,609.771)">
			<stop offset="0" stop-color="#00c1ff"/>
			<stop offset="1" stop-color="#e108f4"/>
		</linearGradient>
	</defs>
	<style>
		.s0 { fill: url(#g1) } 
		.s1 { fill: url(#g2) } 
		.s2 { fill: url(#g3) } 
	</style>
	<path id="Shape 1 copy 2" class="s0" d="m517.2 1229c0 0 22.8-200-47.2-323.5-70-123.5-120.4-281.3-117.7-424.5 2.7-143.3-13.5-102-8.3-226.7 6.2-147.3 33.2-306.6 33.2-306.6l-30.4 2.1c0 0 8 68.8-4.6 114.2-12.5 45.4-89 144.2-50 277.3 43.4 147.9-270.9 257-178.1 420.6 68.5 120.8 71.8 135.6 21.2 352.4-15.9 68.3-6.1 115.7-6.1 115.7z"/>
	<path id="Shape 1" class="s1" d="m57 1259c0 0-16-204.5 54-328 70-123.5 186.7-208.8 184-352-2.7-143.2 69.1-161.8 63.9-286.5-6.2-147.3 15.1-292.5 15.1-292.5h26c0 0-12 153.7 0.5 199.1 12.6 45.4 64.8 70.5 25.8 203.6-43.4 147.9 126.6 225.6 33.9 389.2-68.6 120.8-71.9 135.6-21.3 352.4 15.9 68.3 6.1 115.7 6.1 115.7z"/>
	<path id="Shape 1 copy" class="s2" d="m573 1266.3c0 0 16.2-226.8-53.8-350.3-69.9-123.5-225.1-214.8-184-352 122.9-409.4 8.5-344.6 33.8-442.5 31.4-121.5 6.4-161.9 6.4-161.9l-35.2-6.4c0 0 33.7 35.8 3.7 134.2-33.4 109.4-32 108-13.4 258 18.9 153-131.3 240.3-104.3 428.2 19.8 137.5 15.7 138.9-34.9 355.7-15.9 68.3-6.3 128.2-6.3 128.2z"/>
</svg>