<svg xmlns="http://www.w3.org/2000/svg" xmlns:xlink="http://www.w3.org/1999/xlink" version="1.1" x="0px" y="0px"
    viewBox="0 0 117 157.5" style="enable-background:new 0 0 117 126;" xml:space="preserve" fill="white">
    <g>
        <circle cx="50" cy="39" r="2" />
        <circle cx="30" cy="39" r="2" />
        <path
            d="M48.261,29.516c0.027-0.004,2.633-0.432,4.444,0.843c0.175,0.123,0.376,0.182,0.574,0.182c0.314,0,0.624-0.148,0.819-0.425   c0.317-0.452,0.209-1.075-0.243-1.394c-2.502-1.76-5.802-1.2-5.939-1.176c-0.543,0.096-0.904,0.612-0.81,1.155   C47.2,29.244,47.72,29.61,48.261,29.516z" />
        <path
            d="M26.721,30.54c0.198,0,0.399-0.059,0.574-0.182c1.806-1.269,4.395-0.852,4.443-0.843c0.549,0.09,1.062-0.269,1.156-0.812   c0.097-0.544-0.267-1.063-0.811-1.158c-0.138-0.024-3.438-0.584-5.939,1.176c-0.452,0.318-0.561,0.941-0.243,1.394   C26.097,30.393,26.406,30.54,26.721,30.54z" />
        <path
            d="M42.728,44.229c-1.834,0.52-3.621,0.52-5.455,0c-0.527-0.153-1.084,0.157-1.234,0.689c-0.15,0.531,0.157,1.084,0.689,1.234   c1.094,0.311,2.194,0.468,3.272,0.468s2.179-0.157,3.272-0.468c0.532-0.15,0.84-0.703,0.689-1.234   C43.812,44.386,43.253,44.076,42.728,44.229z" />
        <path
            d="M36.497,39.406c1.842-0.787,5.134-0.786,7.006,0.004c0.336,3.755,3.496,6.71,7.337,6.71c4.063,0,7.37-3.307,7.37-7.37   s-3.307-7.37-7.37-7.37c-3.57,0-6.554,2.553-7.226,5.928c-2.163-0.685-5.08-0.686-7.228-0.005   c-0.674-3.373-3.657-5.923-7.226-5.923c-4.063,0-7.37,3.307-7.37,7.37s3.307,7.37,7.37,7.37   C33.002,46.12,36.163,43.163,36.497,39.406z M50.84,33.38c2.961,0,5.37,2.409,5.37,5.37s-2.409,5.37-5.37,5.37   s-5.37-2.409-5.37-5.37S47.879,33.38,50.84,33.38z M29.16,44.12c-2.961,0-5.37-2.409-5.37-5.37s2.409-5.37,5.37-5.37   s5.37,2.409,5.37,5.37S32.121,44.12,29.16,44.12z" />
        <path
            d="M99.6,65.64H82c-0.553,0-1,0.447-1,1V93c0,0.553,0.447,1,1,1h17.6c0.553,0,1-0.447,1-1V66.64   C100.6,66.087,100.152,65.64,99.6,65.64z M83,92V76.36h15.6V92H83z" />
        <path
            d="M116,54.49H67.04c-0.553,0-1,0.447-1,1v33.396c-4.234-5.102-9.274-9.023-15.012-11.694L47,71.818v-3.115   c6.3-2.293,11.469-7.207,13.858-11.19c0.581-0.973,1.123-2.164,1.622-3.524c2.953-0.039,5.73-2.181,6.939-5.464   c1.535-4.175-0.084-8.707-3.599-10.1c-0.056-0.023-0.118-0.039-0.176-0.061c2.603-6.934,1.851-19.026-3.958-27.549   C58.325,5.881,51.833,0,40,0c-0.409,0-0.808,0.01-1.195,0.02c-0.001,0-0.002,0.001-0.003,0.001c-0.001,0-0.002-0.001-0.003-0.001   C28.341,0.344,20.82,4.849,15.329,8.138C12.345,9.926,9.984,11.34,8.35,11.34c-0.007,0-0.015,0-0.021,0   c-0.277,0.005-0.588,0.131-0.779,0.364c-0.192,0.232-0.269,0.539-0.209,0.835c0.212,1.041,1.081,2.13,2.384,2.987   c1.354,0.89,2.904,1.381,4.354,1.407c-0.721,3.551-3.055,5.49-7.136,8.612c-0.319,0.244-0.461,0.655-0.36,1.044   c0.101,0.39,0.424,0.681,0.821,0.739c1.193,0.176,3.562,0.3,5.521,0.382c-0.211,4.021,0.291,7.835,1.413,10.659   c-0.048,0.018-0.1,0.031-0.146,0.05c-3.526,1.397-5.146,5.93-3.61,10.105c1.209,3.284,3.986,5.427,6.936,5.464   c0.491,1.352,1.034,2.543,1.626,3.525C21.532,61.496,26.7,66.41,33,68.702v3.128l-3.973,5.337   c-11.224,5.205-25.265,17.705-29.02,47.709c-0.036,0.284,0.053,0.57,0.242,0.786C0.441,125.877,0.713,126,1,126h78   c0.287,0,0.56-0.123,0.75-0.338c0.189-0.215,0.277-0.501,0.242-0.786c-0.94-7.54-2.624-14.412-4.993-20.476h20.14v9.769   c-0.079,0.031-0.16,0.063-0.242,0.094c-2.506,0.972-5.098,1.976-5.098,3.728c0,3.387,7.545,5.26,12.76,5.26   c5.093,0,12.46-1.884,12.46-5.29c0-1.791-2.538-2.797-4.993-3.77l-0.042-9.79H116c0.553,0,1-0.447,1-1V55.49   C117,54.938,116.553,54.49,116,54.49z M76.1,96.86V62.04H115v34.82H76.1z M40,70c1.646,0,3.322-0.232,5-0.671v2.592L40.027,82.16   L35,71.898v-2.57C36.678,69.768,38.354,70,40,70z M67.542,47.834c-0.797,2.165-2.518,3.696-4.354,4.058   c0.98-3.214,1.735-7.12,2.219-11.43C67.682,41.627,68.651,44.819,67.542,47.834z M15.51,35.462   c-0.535-2.234-0.745-4.89-0.597-7.665c0.109,0.002,0.218,0.008,0.325,0.003c0.003,0,0.005,0,0.007,0c0.002,0,0.003,0,0.005,0   c0,0,0.001,0,0.001,0c1.684,0.022,3.328-0.065,4.912-0.251C18.42,29.91,16.863,32.558,15.51,35.462z M12.458,47.835   c-1.107-3.011-0.142-6.198,2.136-7.371c0.483,4.297,1.236,8.201,2.214,11.431C14.969,51.536,13.256,50.001,12.458,47.835z    M20.857,56.484c-0.62-1.03-1.191-2.322-1.698-3.841c-0.005-0.015-0.017-0.025-0.022-0.039c-1.225-3.569-2.18-8.398-2.691-13.616   c-0.021-0.181-0.037-0.366-0.054-0.55c1.804-4.367,4.047-8.186,6.679-11.357c4.681-0.947,8.963-2.906,12.765-5.835   c-0.307,1.584-1.02,3.043-2.155,4.417c-0.271,0.33-0.305,0.796-0.08,1.16c0.224,0.365,0.655,0.544,1.071,0.452   c5.951-1.344,10.279-4.349,12.908-8.951c1.219,4.528,4.015,7.768,8.343,9.652c0.414,0.178,0.901,0.061,1.184-0.297   c0.863-1.091,1.287-2.223,1.471-3.359c2.17,3.807,3.829,8.42,5.044,13.989l-0.065,0.693c-0.515,5.246-1.477,10.086-2.712,13.637   c-0.521,1.536-1.094,2.831-1.7,3.847c-2.211,3.685-7.364,8.563-13.456,10.565c-3.822,1.26-7.55,1.261-11.374-0.001   C28.222,65.048,23.068,60.17,20.857,56.484z M60.85,124v-21.72c0-0.553-0.447-1-1-1s-1,0.447-1,1V124H21.15v-21.72   c0-0.553-0.447-1-1-1s-1,0.447-1,1V124H2.139c3.703-27.246,16.147-39.202,26.552-44.447v9.317c0,0.336,0.169,0.649,0.449,0.835   c0.166,0.109,0.357,0.165,0.551,0.165c0.134,0,0.268-0.026,0.394-0.081l5.946-2.547v17.308c0,0.553,0.447,1,1,1h6   c0.553,0,1-0.447,1-1V87.242l5.946,2.547c0.126,0.055,0.26,0.081,0.394,0.081c0.193,0,0.385-0.056,0.551-0.165   c0.28-0.186,0.449-0.499,0.449-0.835v-9.275c5.763,2.92,10.764,7.204,14.865,12.789c2.448,3.315,4.592,7.152,6.372,11.401   c0,0.001,0.001,0.002,0.001,0.002c0,0.001,0.001,0.002,0.001,0.004c2.47,5.925,4.235,12.719,5.251,20.209H60.85z" />
    </g>
</svg>