<svg xmlns="http://www.w3.org/2000/svg" xmlns:xlink="http://www.w3.org/1999/xlink" version="1.1" x="0px" y="0px"
    fill="#FFFFFF10" viewBox="0 0 64 80" style="enable-background:new 0 0 64 64;" xml:space="preserve">
    <path
        d="M63,0H1C0.448,0,0,0.448,0,1v34v11c0,0.552,0.448,1,1,1h3v16c0,0.552,0.448,1,1,1h5c0.552,0,1-0.448,1-1V52.162l1.02,3.06  l0.988,7.902C13.07,63.625,13.496,64,14,64h5c0.285,0,0.556-0.121,0.745-0.333c0.19-0.212,0.28-0.495,0.249-0.777l-1-9  c-0.007-0.07-0.022-0.139-0.045-0.206L16,44.838V42h14v6c0,1.654,1.346,3,3,3h7v1c0,1.302,0.839,2.402,2,2.816V58  c0,0.552,0.448,1,1,1h1v4c0,0.552,0.448,1,1,1h4c0.552,0,1-0.448,1-1v-4h1c0.552,0,1-0.448,1-1v-3.184c1.161-0.414,2-1.514,2-2.816  v-1h7c1.654,0,3-1.346,3-3V32V1C64,0.448,63.552,0,63,0z M17.018,54.216L17.883,62h-3l-0.891-7.124  c-0.008-0.065-0.022-0.13-0.043-0.192l-3-9c-0.155-0.464-0.625-0.747-1.109-0.671C9.355,45.091,9,45.51,9,46v16H6V35H4v10H2V35  c0-1.654,1.346-3,3-3h15c0.265,0,0.52-0.105,0.707-0.293L27,25.414L28.586,27l-7,7H15c-0.552,0-1,0.448-1,1v10  c0,0.107,0.017,0.214,0.051,0.316L17.018,54.216z M6,26c0-2.206,1.794-4,4-4s4,1.794,4,4c0,1.034-0.405,1.969-1.052,2.68  C12.377,28.328,12,27.703,12,27h-2c0,1.078,0.441,2.078,1.163,2.807C10.793,29.921,10.407,30,10,30C7.794,30,6,28.206,6,26z M16,40  v-4h6c0.265,0,0.52-0.105,0.707-0.293l8-8c0.391-0.391,0.391-1.023,0-1.414l-3-3c-0.391-0.391-1.023-0.391-1.414,0L19.586,30H14.46  c0.954-1.063,1.54-2.462,1.54-4c0-3.309-2.691-6-6-6s-6,2.691-6,6c0,1.538,0.586,2.937,1.54,4H5c-1.13,0-2.162,0.391-3,1.026V2h60  v27.184C61.686,29.072,61.352,29,61,29h-7v-1c0-1.654-1.346-3-3-3h-8c-1.654,0-3,1.346-3,3v1h-7c-1.654,0-3,1.346-3,3v8H16z M42,40  c0-1.103,0.897-2,2-2s2,0.897,2,2s-0.897,2-2,2S42,41.103,42,40z M42,44h8c0.265,0,0.52-0.105,0.707-0.293L54,40.414L54.586,41l-4,4  H48c-0.552,0-1,0.448-1,1v3h-7v-3C40,44.897,40.897,44,42,44z M49,47h2c0.265,0,0.52-0.105,0.707-0.293l5-5  c0.391-0.391,0.391-1.023,0-1.414l-2-2c-0.391-0.391-1.023-0.391-1.414,0L49.586,42h-2.142C47.788,41.409,48,40.732,48,40  c0-2.206-1.794-4-4-4s-4,1.794-4,4c0,0.829,0.254,1.6,0.688,2.239C39.128,42.786,38,44.256,38,46v3h-2V31h22v18h-9V47z M52,29H42v-1  c0-0.551,0.449-1,1-1h8c0.551,0,1,0.449,1,1V29z M32,48V32c0-0.551,0.449-1,1-1h1v18h-1C32.449,49,32,48.551,32,48z M48,62h-2v-3h2  V62z M44,57v-2h6v2H44z M52,52c0,0.551-0.449,1-1,1h-8c-0.551,0-1-0.449-1-1v-1h10V52z M62,48c0,0.551-0.449,1-1,1h-1V31h1  c0.551,0,1,0.449,1,1V48z" />
    <path
        d="M25.848,5.47c-0.366-0.585-1.33-0.585-1.696,0l-5,8c-0.192,0.308-0.203,0.697-0.026,1.015S19.636,15,20,15h10  c0.364,0,0.698-0.197,0.875-0.515s0.166-0.707-0.026-1.015L25.848,5.47z M21.804,13L25,7.887L28.196,13H21.804z" />
    <path
        d="M35,15h8c0.552,0,1-0.448,1-1V6c0-0.552-0.448-1-1-1h-8c-0.552,0-1,0.448-1,1v8C34,14.552,34.448,15,35,15z M36,7h6v6h-6V7z  " />
    <path
        d="M52,15c2.757,0,5-2.243,5-5s-2.243-5-5-5s-5,2.243-5,5S49.243,15,52,15z M52,7c1.654,0,3,1.346,3,3s-1.346,3-3,3  s-3-1.346-3-3S50.346,7,52,7z" />
    <rect x="32" y="17" width="21" height="2" />
    <rect x="32" y="21" width="7" height="2" />
    <rect x="42" y="21" width="7" height="2" />
    <rect x="51" y="21" width="2" height="2" />
    <rect x="54" y="33" width="2" height="2" />
    <rect x="50" y="33" width="2" height="2" />
    <rect x="46" y="33" width="2" height="2" />
</svg>