<svg xmlns="http://www.w3.org/2000/svg" data-name="Layer 1" viewBox="0 0 100 125" x="0px" y="0px" fill="#FFFFFF10">
    <title>Artboard 3</title>
    <path
        d="M31,72h6.1l6.24,6.24a9.42,9.42,0,0,0,13.31,0L62.9,72H69A11,11,0,0,0,80,61V30A11,11,0,0,0,69,19H31A11,11,0,0,0,20,30V61A11,11,0,0,0,31,72ZM69,25a5,5,0,0,1,5,5v8H65.33L58.4,25ZM51.6,25l6.93,13H46.33L39.4,25ZM26,30a5,5,0,0,1,5-5h1.6l6.93,13H26Zm0,15V44H74V61a5,5,0,0,1-5,5H62.49a5,5,0,0,0-3.54,1.46L52.41,74a3.41,3.41,0,0,1-4.83,0l-6.54-6.54A5,5,0,0,0,37.51,66H31a5,5,0,0,1-5-5Z" />
</svg>